<svg xmlns="http://www.w3.org/2000/svg" xmlns:xlink="http://www.w3.org/1999/xlink" width="291" zoomAndPan="magnify" viewBox="0 0 218.25 225" height="300" preserveAspectRatio="xMidYMid meet" version="1.0"><defs><clipPath id="46fdcb5db7"><path d="M 0.460938 0.839844 L 217.191406 0.839844 L 217.191406 224.324219 L 0.460938 224.324219 Z M 0.460938 0.839844 " clip-rule="nonzero"/></clipPath></defs><g clip-path="url(#46fdcb5db7)"><path fill="#545454" d="M 19.714844 7.871094 L 15.914062 14.453125 L 8.316406 14.453125 L 4.519531 7.871094 L 8.320312 1.289062 L 15.914062 1.289062 Z M 28 8.238281 L 31.796875 14.820312 L 27.996094 21.402344 L 20.398438 21.402344 L 16.601562 14.820312 L 20.398438 8.238281 Z M 32.484375 1.292969 L 40.082031 1.292969 L 43.882812 7.875 L 40.082031 14.457031 L 32.484375 14.457031 L 28.6875 7.875 Z M 52.164062 8.246094 L 55.964844 14.824219 L 52.164062 21.40625 L 44.566406 21.40625 L 40.769531 14.824219 L 44.566406 8.246094 Z M 56.652344 1.300781 L 64.25 1.300781 L 68.050781 7.878906 L 64.25 14.460938 L 56.652344 14.460938 L 52.851562 7.882812 Z M 76.332031 8.25 L 80.132812 14.832031 L 76.332031 21.414062 L 68.734375 21.414062 L 64.9375 14.832031 L 68.734375 8.25 Z M 80.820312 1.304688 L 88.417969 1.304688 L 92.214844 7.882812 L 88.417969 14.464844 L 80.820312 14.464844 L 77.019531 7.886719 Z M 100.5 8.253906 L 104.296875 14.835938 L 100.5 21.414062 L 92.902344 21.414062 L 89.101562 14.835938 L 92.902344 8.253906 Z M 104.988281 1.308594 L 112.585938 1.308594 L 116.382812 7.890625 L 112.585938 14.46875 L 104.988281 14.46875 L 101.1875 7.890625 Z M 124.667969 8.257812 L 128.464844 14.839844 L 124.667969 21.421875 L 117.070312 21.421875 L 113.269531 14.839844 L 117.070312 8.257812 Z M 129.152344 1.3125 L 136.75 1.3125 L 140.550781 7.894531 L 136.75 14.476562 L 129.152344 14.476562 L 125.355469 7.894531 Z M 148.835938 8.261719 L 152.632812 14.84375 L 148.832031 21.425781 L 141.234375 21.425781 L 137.4375 14.84375 L 141.234375 8.261719 Z M 153.320312 1.316406 L 160.917969 1.316406 L 164.71875 7.898438 L 160.917969 14.480469 L 153.320312 14.480469 L 149.519531 7.898438 Z M 173 8.265625 L 176.800781 14.847656 L 173 21.429688 L 165.402344 21.429688 L 161.605469 14.847656 L 165.402344 8.265625 Z M 177.488281 1.320312 L 185.085938 1.320312 L 188.886719 7.902344 L 185.085938 14.484375 L 177.488281 14.484375 L 173.6875 7.902344 Z M 197.167969 8.273438 L 200.96875 14.851562 L 197.167969 21.433594 L 189.570312 21.433594 L 185.769531 14.851562 L 189.570312 8.273438 Z M 201.65625 1.324219 L 209.253906 1.324219 L 213.050781 7.90625 L 209.253906 14.488281 L 201.65625 14.488281 L 197.855469 7.90625 Z M 213.007812 21.871094 L 209.207031 28.453125 L 201.613281 28.453125 L 197.8125 21.871094 L 201.613281 15.289062 L 209.207031 15.289062 Z M 212.964844 35.835938 L 209.164062 42.417969 L 201.566406 42.417969 L 197.769531 35.835938 L 201.566406 29.253906 L 209.164062 29.253906 Z M 212.921875 49.800781 L 209.121094 56.382812 L 201.523438 56.382812 L 197.722656 49.800781 L 201.523438 43.21875 L 209.121094 43.21875 Z M 212.875 63.765625 L 209.078125 70.347656 L 201.476562 70.347656 L 197.679688 63.765625 L 201.480469 57.183594 L 209.078125 57.183594 Z M 212.832031 77.730469 L 209.03125 84.3125 L 201.433594 84.3125 L 197.636719 77.730469 L 201.433594 71.148438 L 209.03125 71.148438 Z M 212.789062 91.695312 L 208.988281 98.277344 L 201.390625 98.277344 L 197.589844 91.695312 L 201.390625 85.113281 L 208.988281 85.113281 Z M 212.742188 105.660156 L 208.945312 112.242188 L 201.347656 112.242188 L 197.546875 105.660156 L 201.347656 99.078125 L 208.945312 99.078125 Z M 212.699219 119.625 L 208.898438 126.203125 L 201.300781 126.203125 L 197.503906 119.625 L 201.300781 113.042969 L 208.898438 113.042969 Z M 212.65625 133.589844 L 208.855469 140.167969 L 201.257812 140.167969 L 197.460938 133.589844 L 201.257812 127.007812 L 208.855469 127.007812 Z M 212.609375 147.554688 L 208.8125 154.132812 L 201.214844 154.132812 L 197.414062 147.554688 L 201.214844 140.972656 L 208.8125 140.972656 Z M 212.566406 161.519531 L 208.769531 168.097656 L 201.171875 168.097656 L 197.371094 161.519531 L 201.171875 154.9375 L 208.769531 154.9375 Z M 212.523438 175.480469 L 208.722656 182.0625 L 201.125 182.0625 L 197.328125 175.484375 L 201.125 168.902344 L 208.722656 168.902344 Z M 212.476562 189.445312 L 208.679688 196.027344 L 201.082031 196.027344 L 197.28125 189.449219 L 201.082031 182.867188 L 208.679688 182.867188 Z M 212.433594 203.410156 L 208.636719 209.992188 L 201.039062 209.992188 L 197.238281 203.414062 L 201.039062 196.832031 L 208.636719 196.832031 Z M 212.390625 217.375 L 208.589844 223.957031 L 200.992188 223.957031 L 197.195312 217.378906 L 200.992188 210.796875 L 208.589844 210.796875 Z M 188.953125 216.9375 L 185.15625 210.359375 L 188.953125 203.777344 L 196.550781 203.777344 L 200.347656 210.355469 L 196.550781 216.9375 Z M 184.425781 223.953125 L 176.824219 223.953125 L 173.027344 217.371094 L 176.828125 210.789062 L 184.425781 210.789062 L 188.222656 217.371094 Z M 164.785156 216.933594 L 160.988281 210.351562 L 164.785156 203.773438 L 172.382812 203.773438 L 176.183594 210.351562 L 172.382812 216.933594 Z M 160.257812 223.949219 L 152.660156 223.949219 L 148.859375 217.367188 L 152.660156 210.785156 L 160.257812 210.785156 L 164.054688 217.367188 Z M 140.617188 216.929688 L 136.820312 210.347656 L 140.617188 203.769531 L 148.21875 203.769531 L 152.015625 210.347656 L 148.214844 216.929688 Z M 136.089844 223.945312 L 128.492188 223.945312 L 124.695312 217.363281 L 128.492188 210.78125 L 136.089844 210.78125 L 139.890625 217.363281 Z M 116.453125 216.925781 L 112.652344 210.34375 L 116.453125 203.761719 L 124.050781 203.761719 L 127.847656 210.34375 L 124.050781 216.925781 Z M 111.921875 223.941406 L 104.324219 223.941406 L 100.527344 217.359375 L 104.324219 210.777344 L 111.921875 210.777344 L 115.722656 217.359375 Z M 92.285156 216.921875 L 88.484375 210.339844 L 92.285156 203.757812 L 99.882812 203.757812 L 103.679688 210.339844 L 99.882812 216.921875 Z M 87.753906 223.9375 L 80.15625 223.9375 L 76.359375 217.355469 L 80.15625 210.773438 L 87.753906 210.773438 L 91.554688 217.355469 Z M 68.117188 216.917969 L 64.316406 210.335938 L 68.117188 203.753906 L 75.714844 203.753906 L 79.515625 210.335938 L 75.714844 216.917969 Z M 63.589844 223.929688 L 55.988281 223.929688 L 52.191406 217.351562 L 55.992188 210.769531 L 63.589844 210.769531 L 67.386719 217.351562 Z M 43.949219 216.914062 L 40.152344 210.332031 L 43.949219 203.75 L 51.546875 203.75 L 55.347656 210.332031 L 51.546875 216.914062 Z M 39.421875 223.925781 L 31.824219 223.925781 L 28.023438 217.34375 L 31.824219 210.765625 L 39.421875 210.765625 L 43.21875 217.34375 Z M 19.78125 216.90625 L 15.984375 210.328125 L 19.78125 203.746094 L 27.378906 203.746094 L 31.179688 210.324219 L 27.378906 216.90625 Z M 15.253906 223.921875 L 7.65625 223.921875 L 3.855469 217.34375 L 7.65625 210.761719 L 15.253906 210.761719 L 19.054688 217.339844 Z M 3.902344 203.378906 L 7.699219 196.792969 L 15.296875 196.792969 L 19.097656 203.375 L 15.296875 209.957031 L 7.699219 209.957031 Z M 3.945312 189.414062 L 7.746094 182.832031 L 15.34375 182.832031 L 19.140625 189.410156 L 15.34375 195.992188 L 7.746094 195.992188 Z M 3.988281 175.449219 L 7.789062 168.867188 L 15.386719 168.867188 L 19.183594 175.445312 L 15.386719 182.027344 L 7.789062 182.027344 Z M 4.035156 161.484375 L 7.832031 154.902344 L 15.429688 154.902344 L 19.230469 161.484375 L 15.429688 168.0625 L 7.832031 168.0625 Z M 4.078125 147.519531 L 7.878906 140.9375 L 15.472656 140.9375 L 19.273438 147.519531 L 15.472656 154.101562 L 7.875 154.101562 Z M 4.121094 133.554688 L 7.921875 126.972656 L 15.519531 126.972656 L 19.316406 133.554688 L 15.519531 140.132812 L 7.921875 140.132812 Z M 4.167969 119.589844 L 7.964844 113.007812 L 15.5625 113.007812 L 19.363281 119.589844 L 15.5625 126.167969 L 7.964844 126.167969 Z M 4.210938 105.625 L 8.007812 99.042969 L 15.605469 99.042969 L 19.40625 105.625 L 15.605469 112.207031 L 8.007812 112.207031 Z M 4.253906 91.660156 L 8.054688 85.078125 L 15.648438 85.078125 L 19.449219 91.660156 L 15.648438 98.242188 L 8.054688 98.242188 Z M 4.296875 77.695312 L 8.097656 71.113281 L 15.695312 71.113281 L 19.492188 77.695312 L 15.695312 84.277344 L 8.097656 84.277344 Z M 4.34375 63.730469 L 8.140625 57.148438 L 15.738281 57.148438 L 19.539062 63.730469 L 15.738281 70.3125 L 8.140625 70.3125 Z M 4.386719 49.765625 L 8.1875 43.183594 L 15.785156 43.183594 L 19.582031 49.765625 L 15.785156 56.347656 L 8.183594 56.347656 Z M 4.429688 35.800781 L 8.230469 29.21875 L 15.828125 29.21875 L 19.625 35.800781 L 15.828125 42.382812 L 8.230469 42.382812 Z M 31.753906 28.785156 L 27.953125 35.367188 L 20.355469 35.367188 L 16.558594 28.785156 L 20.355469 22.207031 L 27.953125 22.207031 Z M 40.039062 28.421875 L 32.441406 28.421875 L 28.640625 21.839844 L 32.441406 15.257812 L 40.039062 15.257812 L 43.835938 21.839844 Z M 55.921875 28.789062 L 52.121094 35.371094 L 44.523438 35.371094 L 40.722656 28.789062 L 44.523438 22.210938 L 52.121094 22.210938 Z M 64.207031 28.425781 L 56.609375 28.425781 L 52.808594 21.84375 L 56.609375 15.261719 L 64.207031 15.261719 L 68.003906 21.84375 Z M 80.085938 28.792969 L 76.289062 35.375 L 68.691406 35.375 L 64.890625 28.796875 L 68.691406 22.214844 L 76.289062 22.214844 Z M 88.371094 28.429688 L 80.773438 28.429688 L 76.976562 21.851562 L 80.777344 15.269531 L 88.371094 15.269531 L 92.171875 21.847656 Z M 104.253906 28.796875 L 100.453125 35.378906 L 92.859375 35.378906 L 89.058594 28.800781 L 92.859375 22.21875 L 100.457031 22.21875 Z M 112.539062 28.433594 L 104.941406 28.433594 L 101.144531 21.855469 L 104.941406 15.273438 L 112.539062 15.273438 L 116.339844 21.851562 Z M 128.421875 28.804688 L 124.621094 35.386719 L 117.023438 35.386719 L 113.226562 28.804688 L 117.023438 22.222656 L 124.621094 22.222656 Z M 136.707031 28.4375 L 129.109375 28.4375 L 125.3125 21.859375 L 129.109375 15.277344 L 136.707031 15.277344 L 140.503906 21.859375 Z M 152.589844 28.808594 L 148.789062 35.390625 L 141.191406 35.390625 L 137.390625 28.808594 L 141.191406 22.226562 L 148.789062 22.226562 Z M 160.875 28.441406 L 153.277344 28.441406 L 149.476562 21.863281 L 153.277344 15.28125 L 160.875 15.28125 L 164.671875 21.863281 Z M 176.753906 28.8125 L 172.957031 35.394531 L 165.359375 35.394531 L 161.558594 28.8125 L 165.359375 22.230469 L 172.957031 22.230469 Z M 185.042969 28.449219 L 177.441406 28.449219 L 173.644531 21.867188 L 177.445312 15.285156 L 185.042969 15.285156 L 188.839844 21.867188 Z M 189.527344 35.398438 L 185.726562 28.816406 L 189.527344 22.234375 L 197.125 22.234375 L 200.921875 28.816406 L 197.125 35.398438 Z M 189.480469 49.363281 L 185.683594 42.78125 L 189.480469 36.199219 L 197.078125 36.199219 L 200.878906 42.78125 L 197.078125 49.363281 Z M 189.4375 63.328125 L 185.640625 56.746094 L 189.4375 50.164062 L 197.035156 50.164062 L 200.835938 56.746094 L 197.035156 63.328125 Z M 189.394531 77.292969 L 185.59375 70.710938 L 189.394531 64.128906 L 196.992188 64.128906 L 200.792969 70.710938 L 196.992188 77.292969 Z M 189.351562 91.257812 L 185.550781 84.675781 L 189.351562 78.09375 L 196.949219 78.09375 L 200.746094 84.675781 L 196.945312 91.257812 Z M 189.304688 105.222656 L 185.507812 98.640625 L 189.304688 92.058594 L 196.902344 92.058594 L 200.703125 98.640625 L 196.902344 105.222656 Z M 189.261719 119.1875 L 185.464844 112.605469 L 189.261719 106.023438 L 196.859375 106.023438 L 200.660156 112.605469 L 196.859375 119.1875 Z M 189.21875 133.152344 L 185.417969 126.570312 L 189.21875 119.988281 L 196.816406 119.988281 L 200.613281 126.570312 L 196.8125 133.152344 Z M 189.171875 147.117188 L 185.375 140.535156 L 189.171875 133.953125 L 196.773438 133.953125 L 200.570312 140.535156 L 196.769531 147.117188 Z M 189.128906 161.082031 L 185.328125 154.5 L 189.128906 147.917969 L 196.726562 147.917969 L 200.527344 154.5 L 196.726562 161.082031 Z M 189.085938 175.042969 L 185.285156 168.464844 L 189.085938 161.882812 L 196.683594 161.882812 L 200.484375 168.460938 L 196.683594 175.042969 Z M 189.042969 189.007812 L 185.242188 182.429688 L 189.042969 175.847656 L 196.640625 175.847656 L 200.4375 182.425781 L 196.640625 189.007812 Z M 185.199219 196.394531 L 188.996094 189.8125 L 196.59375 189.8125 L 200.394531 196.394531 L 196.59375 202.972656 L 188.996094 202.972656 Z M 176.871094 196.824219 L 184.46875 196.824219 L 188.269531 203.40625 L 184.46875 209.988281 L 176.871094 209.988281 L 173.070312 203.40625 Z M 161.03125 196.390625 L 164.828125 189.808594 L 172.429688 189.808594 L 176.226562 196.386719 L 172.425781 202.96875 L 164.828125 202.96875 Z M 152.703125 196.820312 L 160.300781 196.820312 L 164.101562 203.402344 L 160.300781 209.984375 L 152.703125 209.984375 L 148.902344 203.402344 Z M 136.863281 196.382812 L 140.664062 189.800781 L 148.261719 189.800781 L 152.058594 196.382812 L 148.261719 202.964844 L 140.664062 202.964844 Z M 128.535156 196.816406 L 136.132812 196.816406 L 139.933594 203.398438 L 136.132812 209.980469 L 128.535156 209.980469 L 124.738281 203.398438 Z M 112.695312 196.378906 L 116.496094 189.796875 L 124.09375 189.796875 L 127.890625 196.378906 L 124.09375 202.960938 L 116.496094 202.960938 Z M 104.367188 196.8125 L 111.96875 196.8125 L 115.765625 203.394531 L 111.96875 209.976562 L 104.367188 209.976562 L 100.570312 203.394531 Z M 88.53125 196.375 L 92.328125 189.792969 L 99.925781 189.792969 L 103.726562 196.375 L 99.925781 202.957031 L 92.328125 202.957031 Z M 80.203125 196.808594 L 87.800781 196.808594 L 91.597656 203.390625 L 87.800781 209.972656 L 80.199219 209.972656 L 76.402344 203.390625 Z M 64.363281 196.371094 L 68.160156 189.789062 L 75.757812 189.789062 L 79.558594 196.371094 L 75.757812 202.953125 L 68.160156 202.953125 Z M 56.035156 196.804688 L 63.632812 196.804688 L 67.429688 203.386719 L 63.632812 209.96875 L 56.035156 209.96875 L 52.234375 203.386719 Z M 40.195312 196.367188 L 43.992188 189.785156 L 51.59375 189.785156 L 55.390625 196.367188 L 51.589844 202.949219 L 43.992188 202.949219 Z M 31.867188 196.800781 L 39.464844 196.800781 L 43.265625 203.378906 L 39.464844 209.960938 L 31.867188 209.960938 L 28.070312 203.382812 Z M 27.425781 189.78125 L 31.222656 196.363281 L 27.425781 202.941406 L 19.828125 202.941406 L 16.027344 196.363281 L 19.828125 189.78125 Z M 27.46875 175.816406 L 31.269531 182.398438 L 27.46875 188.980469 L 19.871094 188.980469 L 16.070312 182.398438 L 19.871094 175.816406 Z M 27.511719 161.851562 L 31.3125 168.433594 L 27.511719 175.015625 L 19.914062 175.015625 L 16.117188 168.433594 L 19.914062 161.851562 Z M 27.558594 147.886719 L 31.355469 154.46875 L 27.554688 161.050781 L 19.957031 161.050781 L 16.160156 154.46875 L 19.957031 147.886719 Z M 27.601562 133.921875 L 31.398438 140.503906 L 27.601562 147.085938 L 20.003906 147.085938 L 16.203125 140.503906 L 20.003906 133.921875 Z M 27.644531 119.957031 L 31.445312 126.539062 L 27.644531 133.121094 L 20.046875 133.121094 L 16.25 126.539062 L 20.046875 119.957031 Z M 27.6875 105.992188 L 31.488281 112.574219 L 27.6875 119.15625 L 20.089844 119.15625 L 16.292969 112.574219 L 20.089844 105.992188 Z M 27.734375 92.027344 L 31.53125 98.609375 L 27.734375 105.191406 L 20.136719 105.191406 L 16.335938 98.609375 L 20.136719 92.027344 Z M 27.777344 78.0625 L 31.578125 84.644531 L 27.777344 91.226562 L 20.179688 91.226562 L 16.378906 84.644531 L 20.179688 78.0625 Z M 27.820312 64.097656 L 31.621094 70.679688 L 27.820312 77.261719 L 20.222656 77.261719 L 16.425781 70.679688 L 20.222656 64.097656 Z M 27.867188 50.132812 L 31.664062 56.714844 L 27.863281 63.296875 L 20.265625 63.296875 L 16.46875 56.714844 L 20.265625 50.132812 Z M 31.707031 42.75 L 27.910156 49.332031 L 20.3125 49.332031 L 16.511719 42.75 L 20.3125 36.171875 L 27.910156 36.171875 Z M 39.996094 42.386719 L 32.398438 42.386719 L 28.597656 35.804688 L 32.398438 29.222656 L 39.996094 29.222656 L 43.792969 35.804688 Z M 55.875 42.753906 L 52.078125 49.335938 L 44.480469 49.335938 L 40.679688 42.757812 L 44.480469 36.175781 L 52.078125 36.175781 Z M 64.164062 42.390625 L 56.5625 42.390625 L 52.765625 35.808594 L 56.566406 29.226562 L 64.164062 29.226562 L 67.960938 35.808594 Z M 80.042969 42.757812 L 76.242188 49.339844 L 68.644531 49.339844 L 64.847656 42.761719 L 68.644531 36.179688 L 76.246094 36.179688 Z M 88.328125 42.394531 L 80.730469 42.394531 L 76.933594 35.816406 L 80.730469 29.234375 L 88.328125 29.234375 L 92.128906 35.8125 Z M 104.210938 42.765625 L 100.410156 49.347656 L 92.8125 49.347656 L 89.015625 42.765625 L 92.8125 36.183594 L 100.410156 36.183594 Z M 112.496094 42.398438 L 104.898438 42.398438 L 101.097656 35.820312 L 104.898438 29.238281 L 112.496094 29.238281 L 116.296875 35.816406 Z M 128.378906 42.769531 L 124.578125 49.351562 L 116.980469 49.351562 L 113.183594 42.769531 L 116.980469 36.1875 L 124.578125 36.1875 Z M 136.664062 42.402344 L 129.066406 42.402344 L 125.265625 35.824219 L 129.066406 29.242188 L 136.664062 29.242188 L 140.460938 35.824219 Z M 152.542969 42.773438 L 148.746094 49.355469 L 141.148438 49.355469 L 137.347656 42.773438 L 141.148438 36.191406 L 148.746094 36.191406 Z M 160.832031 42.410156 L 153.234375 42.410156 L 149.433594 35.828125 L 153.234375 29.246094 L 160.832031 29.246094 L 164.628906 35.828125 Z M 176.710938 42.777344 L 172.914062 49.359375 L 165.316406 49.359375 L 161.515625 42.777344 L 165.316406 36.195312 L 172.914062 36.195312 Z M 177.398438 42.414062 L 173.601562 35.832031 L 177.402344 29.25 L 184.996094 29.25 L 188.796875 35.832031 L 184.996094 42.414062 Z M 177.355469 56.375 L 173.554688 49.796875 L 177.355469 43.214844 L 184.953125 43.214844 L 188.753906 49.796875 L 184.953125 56.375 Z M 177.3125 70.34375 L 173.511719 63.761719 L 177.3125 57.179688 L 184.910156 57.179688 L 188.707031 63.761719 L 184.910156 70.34375 Z M 177.265625 84.308594 L 173.46875 77.726562 L 177.269531 71.144531 L 184.863281 71.144531 L 188.664062 77.726562 L 184.863281 84.308594 Z M 177.222656 98.269531 L 173.425781 91.691406 L 177.222656 85.109375 L 184.820312 85.109375 L 188.621094 91.691406 L 184.820312 98.269531 Z M 177.179688 112.234375 L 173.378906 105.65625 L 177.179688 99.074219 L 184.777344 99.074219 L 188.574219 105.65625 L 184.777344 112.234375 Z M 177.132812 126.203125 L 173.335938 119.621094 L 177.136719 113.039062 L 184.734375 113.039062 L 188.53125 119.621094 L 184.734375 126.203125 Z M 177.089844 140.164062 L 173.292969 133.585938 L 177.089844 127.003906 L 184.6875 127.003906 L 188.488281 133.585938 L 184.6875 140.164062 Z M 177.046875 154.128906 L 173.246094 147.550781 L 177.046875 140.96875 L 184.644531 140.96875 L 188.445312 147.546875 L 184.644531 154.128906 Z M 177.003906 168.09375 L 173.203125 161.515625 L 177.003906 154.933594 L 184.601562 154.933594 L 188.398438 161.511719 L 184.601562 168.09375 Z M 176.957031 182.058594 L 173.160156 175.480469 L 176.960938 168.898438 L 184.554688 168.898438 L 188.355469 175.480469 L 184.554688 182.058594 Z M 176.914062 182.863281 L 184.511719 182.863281 L 188.3125 189.441406 L 184.511719 196.023438 L 176.914062 196.023438 L 173.117188 189.445312 Z M 161.074219 182.425781 L 164.875 175.84375 L 172.472656 175.84375 L 176.269531 182.421875 L 172.472656 189.003906 L 164.875 189.003906 Z M 152.746094 182.855469 L 160.34375 182.855469 L 164.144531 189.4375 L 160.34375 196.019531 L 152.746094 196.019531 L 148.949219 189.4375 Z M 136.90625 182.417969 L 140.707031 175.839844 L 148.304688 175.839844 L 152.105469 182.417969 L 148.304688 189 L 140.707031 189 Z M 128.582031 182.851562 L 136.179688 182.851562 L 139.976562 189.433594 L 136.179688 196.015625 L 128.578125 196.015625 L 124.78125 189.433594 Z M 112.738281 182.414062 L 116.539062 175.835938 L 124.136719 175.835938 L 127.9375 182.414062 L 124.136719 188.996094 L 116.539062 188.996094 Z M 104.414062 182.847656 L 112.011719 182.847656 L 115.808594 189.429688 L 112.011719 196.011719 L 104.414062 196.011719 L 100.613281 189.429688 Z M 88.574219 182.410156 L 92.371094 175.828125 L 99.96875 175.828125 L 103.769531 182.410156 L 99.96875 188.992188 L 92.371094 188.992188 Z M 80.246094 182.84375 L 87.84375 182.84375 L 91.644531 189.425781 L 87.84375 196.007812 L 80.246094 196.007812 L 76.449219 189.425781 Z M 64.40625 182.40625 L 68.207031 175.824219 L 75.804688 175.824219 L 79.601562 182.40625 L 75.800781 188.988281 L 68.207031 188.988281 Z M 56.078125 182.839844 L 63.675781 182.839844 L 67.476562 189.421875 L 63.675781 196 L 56.078125 196 L 52.277344 189.421875 Z M 40.238281 182.402344 L 44.039062 175.820312 L 51.636719 175.820312 L 55.433594 182.402344 L 51.636719 188.984375 L 44.039062 188.984375 Z M 39.511719 182.835938 L 43.308594 189.417969 L 39.511719 195.996094 L 31.910156 195.996094 L 28.113281 189.417969 L 31.914062 182.835938 Z M 39.554688 168.871094 L 43.351562 175.453125 L 39.554688 182.03125 L 31.957031 182.03125 L 28.15625 175.453125 L 31.957031 168.871094 Z M 39.597656 154.90625 L 43.398438 161.488281 L 39.597656 168.066406 L 32 168.066406 L 28.199219 161.488281 L 32 154.90625 Z M 39.640625 140.941406 L 43.441406 147.523438 L 39.640625 154.101562 L 32.042969 154.101562 L 28.246094 147.523438 L 32.042969 140.941406 Z M 39.683594 126.976562 L 43.484375 133.558594 L 39.683594 140.140625 L 32.085938 140.140625 L 28.289062 133.558594 L 32.085938 126.976562 Z M 39.730469 113.011719 L 43.527344 119.59375 L 39.730469 126.175781 L 32.132812 126.175781 L 28.332031 119.59375 L 32.132812 113.011719 Z M 39.773438 99.046875 L 43.574219 105.628906 L 39.773438 112.207031 L 32.175781 112.207031 L 28.378906 105.628906 L 32.175781 99.046875 Z M 39.820312 85.082031 L 43.617188 91.664062 L 39.820312 98.246094 L 32.21875 98.246094 L 28.421875 91.664062 L 32.222656 85.082031 Z M 39.863281 71.117188 L 43.660156 77.699219 L 39.863281 84.28125 L 32.265625 84.28125 L 28.464844 77.699219 L 32.265625 71.117188 Z M 39.90625 57.152344 L 43.707031 63.734375 L 39.90625 70.316406 L 32.308594 70.316406 L 28.507812 63.734375 L 32.308594 57.152344 Z M 39.949219 56.351562 L 32.351562 56.351562 L 28.554688 49.769531 L 32.351562 43.1875 L 39.949219 43.1875 L 43.75 49.769531 Z M 55.832031 56.71875 L 52.03125 63.300781 L 44.433594 63.300781 L 40.636719 56.71875 L 44.433594 50.140625 L 52.03125 50.140625 Z M 64.117188 56.355469 L 56.519531 56.355469 L 52.722656 49.777344 L 56.519531 43.195312 L 64.117188 43.195312 L 67.917969 49.773438 Z M 80 56.722656 L 76.199219 63.304688 L 68.601562 63.304688 L 64.804688 56.722656 L 68.601562 50.144531 L 76.199219 50.144531 Z M 88.285156 56.359375 L 80.6875 56.359375 L 76.886719 49.777344 L 80.6875 43.199219 L 88.285156 43.199219 L 92.082031 49.777344 Z M 104.167969 56.726562 L 100.367188 63.308594 L 92.769531 63.308594 L 88.96875 56.730469 L 92.769531 50.148438 L 100.367188 50.148438 Z M 112.453125 56.363281 L 104.851562 56.363281 L 101.054688 49.785156 L 104.855469 43.203125 L 112.453125 43.203125 L 116.25 49.785156 Z M 128.332031 56.730469 L 124.535156 63.316406 L 116.9375 63.316406 L 113.136719 56.734375 L 116.9375 50.152344 L 124.535156 50.152344 Z M 136.617188 56.367188 L 129.019531 56.367188 L 125.222656 49.789062 L 129.019531 43.207031 L 136.617188 43.207031 L 140.417969 49.789062 Z M 152.5 56.738281 L 148.699219 63.320312 L 141.105469 63.320312 L 137.304688 56.738281 L 141.105469 50.15625 L 148.703125 50.15625 Z M 160.785156 56.375 L 153.1875 56.375 L 149.390625 49.792969 L 153.1875 43.210938 L 160.785156 43.210938 L 164.585938 49.792969 Z M 165.269531 63.324219 L 161.472656 56.742188 L 165.269531 50.160156 L 172.871094 50.160156 L 176.667969 56.742188 L 172.867188 63.324219 Z M 165.226562 77.289062 L 161.425781 70.707031 L 165.226562 64.125 L 172.824219 64.125 L 176.625 70.707031 L 172.824219 77.289062 Z M 165.183594 91.253906 L 161.382812 84.671875 L 165.183594 78.089844 L 172.78125 78.089844 L 176.578125 84.671875 L 172.78125 91.253906 Z M 165.140625 105.21875 L 161.339844 98.636719 L 165.140625 92.054688 L 172.738281 92.054688 L 176.535156 98.636719 L 172.734375 105.21875 Z M 165.09375 119.183594 L 161.296875 112.601562 L 165.09375 106.019531 L 172.691406 106.019531 L 176.492188 112.601562 L 172.691406 119.183594 Z M 165.050781 133.148438 L 161.25 126.566406 L 165.050781 119.984375 L 172.648438 119.984375 L 176.449219 126.566406 L 172.648438 133.148438 Z M 165.007812 147.109375 L 161.207031 140.53125 L 165.007812 133.949219 L 172.605469 133.949219 L 176.402344 140.53125 L 172.605469 147.109375 Z M 164.960938 161.074219 L 161.164062 154.496094 L 164.960938 147.914062 L 172.5625 147.914062 L 176.359375 154.492188 L 172.558594 161.074219 Z M 161.117188 168.460938 L 164.917969 161.878906 L 172.515625 161.878906 L 176.316406 168.460938 L 172.515625 175.042969 L 164.917969 175.042969 Z M 152.792969 168.890625 L 160.390625 168.890625 L 164.1875 175.472656 L 160.390625 182.054688 L 152.789062 182.054688 L 148.992188 175.472656 Z M 136.953125 168.453125 L 140.75 161.875 L 148.347656 161.875 L 152.148438 168.453125 L 148.347656 175.035156 L 140.75 175.035156 Z M 128.625 168.886719 L 136.222656 168.886719 L 140.023438 175.46875 L 136.222656 182.050781 L 128.625 182.050781 L 124.824219 175.46875 Z M 112.785156 168.449219 L 116.582031 161.867188 L 124.183594 161.867188 L 127.980469 168.449219 L 124.183594 175.03125 L 116.582031 175.03125 Z M 104.457031 168.882812 L 112.054688 168.882812 L 115.855469 175.464844 L 112.054688 182.046875 L 104.457031 182.046875 L 100.65625 175.464844 Z M 88.617188 168.445312 L 92.417969 161.863281 L 100.015625 161.863281 L 103.8125 168.445312 L 100.015625 175.027344 L 92.417969 175.027344 Z M 80.289062 168.878906 L 87.886719 168.878906 L 91.6875 175.460938 L 87.886719 182.042969 L 80.289062 182.042969 L 76.492188 175.460938 Z M 64.449219 168.441406 L 68.25 161.859375 L 75.847656 161.859375 L 79.644531 168.441406 L 75.847656 175.023438 L 68.25 175.023438 Z M 56.121094 168.875 L 63.71875 168.875 L 67.519531 175.457031 L 63.71875 182.035156 L 56.121094 182.035156 L 52.324219 175.457031 Z M 51.679688 161.855469 L 55.480469 168.4375 L 51.679688 175.019531 L 44.082031 175.019531 L 40.285156 168.4375 L 44.082031 161.855469 Z M 51.722656 147.890625 L 55.523438 154.472656 L 51.722656 161.054688 L 44.128906 161.054688 L 40.328125 154.472656 L 44.128906 147.890625 Z M 51.769531 133.925781 L 55.566406 140.507812 L 51.769531 147.089844 L 44.171875 147.089844 L 40.371094 140.507812 L 44.171875 133.925781 Z M 51.8125 119.960938 L 55.609375 126.542969 L 51.8125 133.125 L 44.214844 133.125 L 40.414062 126.542969 L 44.214844 119.960938 Z M 51.855469 105.996094 L 55.65625 112.578125 L 51.855469 119.160156 L 44.257812 119.160156 L 40.460938 112.578125 L 44.257812 105.996094 Z M 51.902344 92.03125 L 55.699219 98.613281 L 51.898438 105.195312 L 44.300781 105.195312 L 40.503906 98.613281 L 44.300781 92.03125 Z M 51.945312 78.066406 L 55.742188 84.648438 L 51.945312 91.230469 L 44.347656 91.230469 L 40.546875 84.648438 L 44.347656 78.066406 Z M 55.789062 70.683594 L 51.988281 77.265625 L 44.390625 77.265625 L 40.59375 70.683594 L 44.390625 64.105469 L 51.988281 64.105469 Z M 64.074219 70.320312 L 56.476562 70.320312 L 52.675781 63.738281 L 56.476562 57.15625 L 64.074219 57.15625 L 67.871094 63.738281 Z M 79.953125 70.6875 L 76.15625 77.269531 L 68.558594 77.269531 L 64.757812 70.691406 L 68.558594 64.109375 L 76.15625 64.109375 Z M 88.242188 70.324219 L 80.644531 70.324219 L 76.84375 63.742188 L 80.644531 57.160156 L 88.242188 57.160156 L 92.039062 63.742188 Z M 104.121094 70.691406 L 100.324219 77.273438 L 92.726562 77.273438 L 88.925781 70.695312 L 92.726562 64.113281 L 100.324219 64.113281 Z M 112.410156 70.328125 L 104.808594 70.328125 L 101.011719 63.75 L 104.8125 57.167969 L 112.410156 57.167969 L 116.207031 63.746094 Z M 128.289062 70.699219 L 124.488281 77.28125 L 116.890625 77.28125 L 113.09375 70.699219 L 116.890625 64.117188 L 124.492188 64.117188 Z M 136.574219 70.332031 L 128.976562 70.332031 L 125.179688 63.753906 L 128.976562 57.171875 L 136.574219 57.171875 L 140.375 63.753906 Z M 152.457031 70.703125 L 148.65625 77.285156 L 141.058594 77.285156 L 137.261719 70.703125 L 141.058594 64.121094 L 148.65625 64.121094 Z M 153.144531 70.335938 L 149.34375 63.757812 L 153.144531 57.175781 L 160.742188 57.175781 L 164.539062 63.757812 L 160.742188 70.335938 Z M 153.101562 84.300781 L 149.300781 77.722656 L 153.101562 71.140625 L 160.699219 71.140625 L 164.496094 77.71875 L 160.699219 84.300781 Z M 153.054688 98.265625 L 149.257812 91.6875 L 153.054688 85.105469 L 160.652344 85.105469 L 164.453125 91.6875 L 160.652344 98.265625 Z M 153.011719 112.230469 L 149.214844 105.652344 L 153.011719 99.070312 L 160.609375 99.070312 L 164.410156 105.652344 L 160.609375 112.230469 Z M 152.96875 126.195312 L 149.167969 119.617188 L 152.96875 113.035156 L 160.566406 113.035156 L 164.363281 119.613281 L 160.566406 126.195312 Z M 152.921875 140.160156 L 149.125 133.578125 L 152.925781 127 L 160.523438 127 L 164.320312 133.578125 L 160.523438 140.160156 Z M 152.878906 154.125 L 149.082031 147.546875 L 152.878906 140.964844 L 160.476562 140.964844 L 164.277344 147.542969 L 160.476562 154.125 Z M 152.835938 154.929688 L 160.433594 154.929688 L 164.234375 161.507812 L 160.433594 168.089844 L 152.835938 168.089844 L 149.035156 161.511719 Z M 136.996094 154.492188 L 140.796875 147.910156 L 148.390625 147.910156 L 152.191406 154.488281 L 148.390625 161.070312 L 140.796875 161.070312 Z M 128.667969 154.921875 L 136.265625 154.921875 L 140.066406 161.503906 L 136.265625 168.085938 L 128.667969 168.085938 L 124.871094 161.503906 Z M 112.828125 154.484375 L 116.628906 147.90625 L 124.226562 147.90625 L 128.023438 154.484375 L 124.226562 161.066406 L 116.628906 161.066406 Z M 104.503906 154.917969 L 112.101562 154.917969 L 115.898438 161.5 L 112.101562 168.082031 L 104.5 168.082031 L 100.703125 161.5 Z M 88.660156 154.480469 L 92.460938 147.902344 L 100.058594 147.902344 L 103.859375 154.480469 L 100.058594 161.0625 L 92.460938 161.0625 Z M 80.335938 154.914062 L 87.929688 154.914062 L 91.730469 161.496094 L 87.929688 168.078125 L 80.332031 168.078125 L 76.535156 161.496094 Z M 64.496094 154.476562 L 68.292969 147.894531 L 75.890625 147.894531 L 79.691406 154.476562 L 75.890625 161.058594 L 68.292969 161.058594 Z M 63.765625 154.910156 L 67.5625 161.492188 L 63.765625 168.074219 L 56.167969 168.074219 L 52.367188 161.492188 L 56.167969 154.910156 Z M 63.808594 140.945312 L 67.609375 147.527344 L 63.808594 154.109375 L 56.210938 154.109375 L 52.414062 147.527344 L 56.210938 140.945312 Z M 63.851562 126.980469 L 67.652344 133.5625 L 63.851562 140.144531 L 56.253906 140.144531 L 52.457031 133.5625 L 56.257812 126.980469 Z M 63.898438 113.015625 L 67.695312 119.597656 L 63.898438 126.179688 L 56.300781 126.179688 L 52.5 119.597656 L 56.300781 113.015625 Z M 63.941406 99.050781 L 67.742188 105.632812 L 63.941406 112.214844 L 56.34375 112.214844 L 52.542969 105.632812 L 56.34375 99.050781 Z M 63.984375 85.085938 L 67.785156 91.667969 L 63.984375 98.25 L 56.386719 98.25 L 52.585938 91.667969 L 56.386719 85.085938 Z M 64.03125 84.285156 L 56.429688 84.285156 L 52.632812 77.703125 L 56.429688 71.121094 L 64.03125 71.121094 L 67.828125 77.703125 Z M 79.910156 84.652344 L 76.109375 91.234375 L 68.515625 91.234375 L 64.714844 84.652344 L 68.515625 78.074219 L 76.113281 78.074219 Z M 88.195312 84.289062 L 80.597656 84.289062 L 76.800781 77.710938 L 80.601562 71.128906 L 88.195312 71.128906 L 91.996094 77.707031 Z M 104.078125 84.65625 L 100.277344 91.238281 L 92.679688 91.238281 L 88.882812 84.65625 L 92.679688 78.078125 L 100.28125 78.078125 Z M 112.363281 84.292969 L 104.765625 84.292969 L 100.96875 77.714844 L 104.765625 71.128906 L 112.363281 71.128906 L 116.164062 77.710938 Z M 128.246094 84.660156 L 124.445312 91.242188 L 116.847656 91.242188 L 113.050781 84.664062 L 116.847656 78.082031 L 124.445312 78.082031 Z M 136.53125 84.296875 L 128.933594 84.296875 L 125.132812 77.71875 L 128.933594 71.136719 L 136.53125 71.136719 L 140.332031 77.714844 Z M 141.015625 91.25 L 137.21875 84.667969 L 141.015625 78.085938 L 148.613281 78.085938 L 152.410156 84.667969 L 148.613281 91.25 Z M 140.972656 105.214844 L 137.171875 98.632812 L 140.972656 92.050781 L 148.570312 92.050781 L 152.367188 98.632812 L 148.570312 105.214844 Z M 140.925781 119.175781 L 137.128906 112.597656 L 140.925781 106.015625 L 148.523438 106.015625 L 152.324219 112.59375 L 148.523438 119.175781 Z M 140.882812 133.140625 L 137.085938 126.5625 L 140.882812 119.980469 L 148.480469 119.980469 L 152.28125 126.558594 L 148.480469 133.140625 Z M 137.039062 140.523438 L 140.839844 133.945312 L 148.4375 133.945312 L 152.234375 140.523438 L 148.4375 147.105469 L 140.839844 147.105469 Z M 128.710938 140.957031 L 136.308594 140.957031 L 140.109375 147.539062 L 136.308594 154.121094 L 128.710938 154.121094 L 124.914062 147.539062 Z M 112.871094 140.519531 L 116.671875 133.941406 L 124.269531 133.941406 L 128.070312 140.519531 L 124.269531 147.101562 L 116.671875 147.101562 Z M 104.546875 140.953125 L 112.144531 140.953125 L 115.941406 147.535156 L 112.144531 154.117188 L 104.542969 154.117188 L 100.746094 147.535156 Z M 88.707031 140.515625 L 92.503906 133.933594 L 100.101562 133.933594 L 103.902344 140.515625 L 100.101562 147.097656 L 92.503906 147.097656 Z M 80.378906 140.949219 L 87.976562 140.949219 L 91.773438 147.53125 L 87.976562 154.113281 L 80.378906 154.113281 L 76.578125 147.53125 Z M 75.9375 133.933594 L 79.734375 140.511719 L 75.933594 147.09375 L 68.335938 147.09375 L 64.539062 140.511719 L 68.335938 133.933594 Z M 75.980469 119.964844 L 79.777344 126.546875 L 75.980469 133.128906 L 68.382812 133.128906 L 64.582031 126.546875 L 68.382812 119.964844 Z M 76.023438 106 L 79.824219 112.582031 L 76.023438 119.164062 L 68.425781 119.164062 L 64.625 112.582031 L 68.425781 106 Z M 79.867188 98.617188 L 76.066406 105.199219 L 68.46875 105.199219 L 64.671875 98.617188 L 68.46875 92.039062 L 76.066406 92.039062 Z M 88.152344 98.253906 L 80.554688 98.253906 L 76.757812 91.671875 L 80.554688 85.089844 L 88.152344 85.089844 L 91.953125 91.671875 Z M 104.035156 98.621094 L 100.234375 105.203125 L 92.636719 105.203125 L 88.839844 98.621094 L 92.636719 92.042969 L 100.234375 92.042969 Z M 112.320312 98.257812 L 104.722656 98.257812 L 100.921875 91.675781 L 104.722656 85.09375 L 112.320312 85.09375 L 116.117188 91.675781 Z M 128.203125 98.625 L 124.402344 105.207031 L 116.804688 105.207031 L 113.003906 98.625 L 116.804688 92.046875 L 124.402344 92.046875 Z M 128.886719 98.261719 L 125.089844 91.683594 L 128.890625 85.101562 L 136.488281 85.101562 L 140.285156 91.679688 L 136.488281 98.261719 Z M 128.84375 112.226562 L 125.046875 105.644531 L 128.847656 99.066406 L 136.441406 99.066406 L 140.242188 105.644531 L 136.441406 112.226562 Z M 128.800781 126.191406 L 125.003906 119.609375 L 128.800781 113.027344 L 136.398438 113.027344 L 140.199219 119.609375 L 136.398438 126.191406 Z M 128.757812 126.996094 L 136.355469 126.996094 L 140.152344 133.574219 L 136.355469 140.15625 L 128.757812 140.15625 L 124.957031 133.578125 Z M 112.917969 126.558594 L 116.714844 119.976562 L 124.3125 119.976562 L 128.113281 126.554688 L 124.3125 133.136719 L 116.714844 133.136719 Z M 104.589844 126.988281 L 112.1875 126.988281 L 115.984375 133.570312 L 112.1875 140.152344 L 104.589844 140.152344 L 100.789062 133.570312 Z M 88.75 126.550781 L 92.546875 119.972656 L 100.148438 119.972656 L 103.945312 126.550781 L 100.144531 133.132812 L 92.546875 133.132812 Z M 88.019531 126.984375 L 91.820312 133.566406 L 88.019531 140.148438 L 80.421875 140.148438 L 76.621094 133.566406 L 80.421875 126.984375 Z M 88.0625 113.019531 L 91.863281 119.601562 L 88.0625 126.183594 L 80.464844 126.183594 L 76.667969 119.601562 L 80.464844 113.019531 Z M 88.109375 112.21875 L 80.507812 112.21875 L 76.710938 105.636719 L 80.511719 99.054688 L 88.109375 99.054688 L 91.90625 105.636719 Z M 103.988281 112.585938 L 100.191406 119.167969 L 92.59375 119.167969 L 88.792969 112.585938 L 92.59375 106.007812 L 100.191406 106.007812 Z M 112.273438 112.222656 L 104.679688 112.222656 L 100.878906 105.644531 L 104.679688 99.0625 L 112.273438 99.0625 L 116.074219 105.640625 Z M 116.03125 119.605469 L 112.230469 126.1875 L 104.632812 126.1875 L 100.835938 119.605469 L 104.632812 113.023438 L 112.230469 113.023438 Z M 112.960938 112.589844 L 116.761719 106.011719 L 124.359375 106.011719 L 128.15625 112.589844 L 124.359375 119.171875 L 116.761719 119.171875 Z M 4.476562 21.835938 L 8.273438 15.253906 L 15.871094 15.253906 L 19.671875 21.835938 L 15.871094 28.417969 L 8.273438 28.417969 Z M 7.667969 0.839844 L 7.671875 0.851562 L 3.875 7.433594 L 0.460938 7.433594 L 0.460938 8.238281 L 3.832031 8.238281 L 7.628906 14.816406 L 3.828125 21.398438 L 0.460938 21.398438 L 0.460938 22.199219 L 3.785156 22.199219 L 7.585938 28.78125 L 3.785156 35.363281 L 0.460938 35.363281 L 0.460938 36.164062 L 3.742188 36.164062 L 7.542969 42.746094 L 3.742188 49.328125 L 0.460938 49.328125 L 0.460938 50.128906 L 3.699219 50.128906 L 7.496094 56.710938 L 3.699219 63.292969 L 0.460938 63.292969 L 0.460938 64.09375 L 3.65625 64.09375 L 7.453125 70.675781 L 3.652344 77.257812 L 0.460938 77.257812 L 0.460938 78.058594 L 3.609375 78.058594 L 7.410156 84.640625 L 3.609375 91.222656 L 0.460938 91.222656 L 0.460938 92.023438 L 3.566406 92.023438 L 7.363281 98.605469 L 3.566406 105.1875 L 0.460938 105.1875 L 0.460938 105.988281 L 3.523438 105.988281 L 7.320312 112.570312 L 3.519531 119.152344 L 0.460938 119.152344 L 0.460938 119.953125 L 3.476562 119.953125 L 7.277344 126.535156 L 3.476562 133.117188 L 0.460938 133.117188 L 0.460938 133.917969 L 3.433594 133.917969 L 7.234375 140.496094 L 3.433594 147.082031 L 0.460938 147.082031 L 0.460938 147.882812 L 3.390625 147.882812 L 7.1875 154.464844 L 3.390625 161.046875 L 0.460938 161.046875 L 0.460938 161.847656 L 3.347656 161.847656 L 7.144531 168.425781 L 3.347656 175.007812 L 0.460938 175.007812 L 0.460938 175.8125 L 3.300781 175.8125 L 7.101562 182.390625 L 3.300781 188.972656 L 0.460938 188.972656 L 0.460938 189.777344 L 3.257812 189.777344 L 7.054688 196.355469 L 3.257812 202.9375 L 0.460938 202.9375 L 0.460938 203.742188 L 3.214844 203.742188 L 7.011719 210.320312 L 3.210938 216.902344 L 0.460938 216.902344 L 0.460938 217.707031 L 3.167969 217.707031 L 6.96875 224.285156 L 6.945312 224.328125 L 15.960938 224.328125 L 15.941406 224.292969 L 19.738281 217.710938 L 27.335938 217.710938 L 31.136719 224.292969 L 31.113281 224.328125 L 40.125 224.328125 L 40.105469 224.296875 L 43.90625 217.714844 L 51.503906 217.714844 L 55.300781 224.292969 L 55.28125 224.328125 L 64.289062 224.328125 L 64.273438 224.300781 L 68.074219 217.71875 L 75.671875 217.71875 L 79.46875 224.300781 L 79.453125 224.328125 L 88.457031 224.328125 L 88.441406 224.304688 L 92.238281 217.722656 L 99.839844 217.722656 L 103.636719 224.304688 L 103.621094 224.328125 L 112.621094 224.328125 L 112.609375 224.308594 L 116.40625 217.726562 L 124.003906 217.726562 L 127.804688 224.308594 L 127.792969 224.328125 L 136.785156 224.328125 L 136.777344 224.3125 L 140.574219 217.730469 L 148.171875 217.730469 L 151.972656 224.3125 L 151.960938 224.328125 L 160.949219 224.328125 L 160.941406 224.320312 L 164.742188 217.734375 L 172.339844 217.734375 L 176.140625 224.316406 L 176.132812 224.328125 L 185.113281 224.328125 L 185.109375 224.320312 L 188.910156 217.742188 L 196.507812 217.742188 L 200.304688 224.320312 L 200.300781 224.328125 L 209.277344 224.328125 L 213.078125 217.746094 L 217.191406 217.746094 L 217.191406 216.941406 L 213.121094 216.941406 L 209.320312 210.363281 L 213.121094 203.78125 L 217.191406 203.78125 L 217.191406 202.976562 L 213.164062 202.976562 L 209.363281 196.398438 L 213.164062 189.816406 L 217.191406 189.816406 L 217.191406 189.015625 L 213.207031 189.015625 L 209.410156 182.433594 L 213.207031 175.851562 L 217.191406 175.851562 L 217.191406 175.050781 L 213.253906 175.050781 L 209.453125 168.46875 L 213.253906 161.886719 L 217.191406 161.886719 L 217.191406 161.085938 L 213.296875 161.085938 L 209.5 154.503906 L 213.296875 147.921875 L 217.191406 147.921875 L 217.191406 147.121094 L 213.339844 147.121094 L 209.542969 140.539062 L 213.339844 133.957031 L 217.191406 133.957031 L 217.191406 133.15625 L 213.386719 133.15625 L 209.585938 126.574219 L 213.386719 119.992188 L 217.191406 119.992188 L 217.191406 119.191406 L 213.429688 119.191406 L 209.628906 112.609375 L 213.429688 106.027344 L 217.191406 106.027344 L 217.191406 105.226562 L 213.472656 105.226562 L 209.671875 98.644531 L 213.472656 92.0625 L 217.191406 92.0625 L 217.191406 91.261719 L 213.515625 91.261719 L 209.71875 84.679688 L 213.515625 78.097656 L 217.191406 78.097656 L 217.191406 77.296875 L 213.558594 77.296875 L 209.761719 70.714844 L 213.558594 64.136719 L 217.191406 64.136719 L 217.191406 63.332031 L 213.605469 63.332031 L 209.804688 56.75 L 213.605469 50.167969 L 217.191406 50.167969 L 217.191406 49.367188 L 213.648438 49.367188 L 209.851562 42.785156 L 213.648438 36.207031 L 217.191406 36.207031 L 217.191406 35.402344 L 213.695312 35.402344 L 209.894531 28.820312 L 213.695312 22.242188 L 217.191406 22.242188 L 217.191406 21.4375 L 213.738281 21.4375 L 209.9375 14.859375 L 213.738281 8.277344 L 217.191406 8.277344 L 217.191406 7.472656 L 213.78125 7.472656 L 209.980469 0.890625 L 210.011719 0.839844 L 200.984375 0.839844 L 201.011719 0.886719 L 197.210938 7.46875 L 189.613281 7.46875 L 185.816406 0.886719 L 185.84375 0.839844 L 176.820312 0.839844 L 176.84375 0.882812 L 173.042969 7.464844 L 165.449219 7.464844 L 161.648438 0.882812 L 161.671875 0.839844 L 152.65625 0.839844 L 152.675781 0.878906 L 148.878906 7.460938 L 141.28125 7.460938 L 137.480469 0.878906 L 137.503906 0.839844 L 128.492188 0.839844 L 128.511719 0.875 L 124.710938 7.457031 L 117.113281 7.457031 L 113.3125 0.875 L 113.332031 0.839844 L 104.324219 0.839844 L 104.34375 0.871094 L 100.542969 7.453125 L 92.945312 7.453125 L 89.148438 0.871094 L 89.164062 0.839844 L 80.160156 0.839844 L 80.175781 0.863281 L 76.375 7.445312 L 68.777344 7.445312 L 64.980469 0.867188 L 64.992188 0.839844 L 55.996094 0.839844 L 56.007812 0.859375 L 52.207031 7.441406 L 44.609375 7.441406 L 40.8125 0.863281 L 40.824219 0.839844 L 31.832031 0.839844 L 31.839844 0.855469 L 28.042969 7.4375 L 20.445312 7.4375 L 16.644531 0.855469 L 16.65625 0.839844 L 7.667969 0.839844 " fill-opacity="1" fill-rule="nonzero"/></g></svg>